HIERARCHY
ROOT Hips
{
	OFFSET 0.000000 0.000000 0.000000
	CHANNELS 6 Xposition Yposition Zposition Xrotation Yrotation Zrotation
	JOINT LeftUpLeg_virtual
	{
		OFFSET 0.000000 0.000000 0.000000
		CHANNELS 3 Xrotation Yrotation Zrotation
		JOINT LeftUpLeg
		{
			OFFSET 10.205400 -3.823500 0.155100
			CHANNELS 3 Xrotation Yrotation Zrotation
			JOINT LeftLeg
			{
				OFFSET 0.708757 -12.982077 0.567790
				CHANNELS 3 Xrotation Yrotation Zrotation
				JOINT LeftFoot
				{
					OFFSET -0.708756 -10.717838 -2.184338
					CHANNELS 3 Xrotation Yrotation Zrotation
					JOINT LeftToeBase
					{
						OFFSET 0.108149 -7.191104 7.560241
						CHANNELS 3 Xrotation Yrotation Zrotation
						JOINT LeftToe_End
						{
							OFFSET 0.070230 0.081724 4.490308
							CHANNELS 3 Xrotation Yrotation Zrotation
							End Site
							{
								OFFSET 0 0 0
							}
						}
					}
				}
			}
		}
	}
	JOINT RightUpLeg_virtual
	{
		OFFSET 0.000000 0.000000 0.000000
		CHANNELS 3 Xrotation Yrotation Zrotation
		JOINT RightUpLeg
		{
			OFFSET -10.205400 -3.823500 0.005500
			CHANNELS 3 Xrotation Yrotation Zrotation
			JOINT RightLeg
			{
				OFFSET -0.708756 -12.982134 0.610632
				CHANNELS 3 Xrotation Yrotation Zrotation
				JOINT RightFoot
				{
					OFFSET 0.708754 -10.717769 -1.945823
					CHANNELS 3 Xrotation Yrotation Zrotation
					JOINT RightToeBase
					{
						OFFSET -0.108140 -7.191069 7.372968
						CHANNELS 3 Xrotation Yrotation Zrotation
						JOINT RightToe_End
						{
							OFFSET -0.070227 0.081735 4.479403
							CHANNELS 3 Xrotation Yrotation Zrotation
							End Site
							{
								OFFSET 0 0 0
							}
						}
					}
				}
			}
		}
	}
	JOINT Spine_virtual
	{
		OFFSET 0.000000 0.000000 0.000000
		CHANNELS 3 Xrotation Yrotation Zrotation
		JOINT Spine
		{
			OFFSET 0.000000 6.876099 0.125700
			CHANNELS 3 Xrotation Yrotation Zrotation
			JOINT Spine1
			{
				OFFSET 0.000000 5.730043 0.104720
				CHANNELS 3 Xrotation Yrotation Zrotation
				JOINT Spine1_split
				{
					OFFSET 0.000000 5.730043 0.104720
					CHANNELS 3 Xrotation Yrotation Zrotation
					JOINT Spine2
					{
						OFFSET 0.000000 5.730043 0.104720
						CHANNELS 3 Xrotation Yrotation Zrotation
						JOINT Neck_virtual
						{
							OFFSET 0.000000 0.000000 0.000000
							CHANNELS 3 Xrotation Yrotation Zrotation
							JOINT Neck
							{
								OFFSET 0.000000 10.314075 0.188496
								CHANNELS 3 Xrotation Yrotation Zrotation
								JOINT Head
								{
									OFFSET 0.000000 7.643700 -2.377400
									CHANNELS 3 Xrotation Yrotation Zrotation
									JOINT HeadTop_End
									{
										OFFSET 0.000000 43.788605 -13.619600
										CHANNELS 3 Xrotation Yrotation Zrotation
										End Site
										{
											OFFSET 0 0 0
										}
									}
								}
							}
						}
						JOINT LeftShoulder_virtual
						{
							OFFSET 0.000000 0.000000 0.000000
							CHANNELS 3 Xrotation Yrotation Zrotation
							JOINT LeftShoulder
							{
								OFFSET 2.196100 4.412489 0.087492
								CHANNELS 3 Xrotation Yrotation Zrotation
								JOINT LeftShoulder_split
								{
									OFFSET 2.196100 4.412489 0.087492
									CHANNELS 3 Xrotation Yrotation Zrotation
									JOINT LeftArm
									{
										OFFSET 8.771219 -2.981674 -0.026999
										CHANNELS 3 Xrotation Yrotation Zrotation
										JOINT LeftForeArm
										{
											OFFSET 8.512804 0.000000 -0.000000
											CHANNELS 3 Xrotation Yrotation Zrotation
											JOINT LeftHand
											{
												OFFSET 18.484802 0.000000 -0.000000
												CHANNELS 3 Xrotation Yrotation Zrotation
												End Site
												{
													OFFSET 0 0 0
												}
											}
										}
									}
								}
							}
						}
						JOINT RightShoulder_virtual
						{
							OFFSET 0.000000 0.000000 0.000000
							CHANNELS 3 Xrotation Yrotation Zrotation
							JOINT RightShoulder
							{
								OFFSET -2.196100 4.412496 0.070690
								CHANNELS 3 Xrotation Yrotation Zrotation
								JOINT RightShoulder_split
								{
									OFFSET -2.196100 4.412496 0.070690
									CHANNELS 3 Xrotation Yrotation Zrotation
									JOINT RightArm
									{
										OFFSET -8.771282 -2.981682 -0.094208
										CHANNELS 3 Xrotation Yrotation Zrotation
										JOINT RightForeArm
										{
											OFFSET -8.494598 0.000000 0.000000
											CHANNELS 3 Xrotation Yrotation Zrotation
											JOINT RightHand
											{
												OFFSET -18.483803 0.000000 0.000001
												CHANNELS 3 Xrotation Yrotation Zrotation
												End Site
												{
													OFFSET 0 0 0
												}
											}
										}
									}
								}
							}
						}
					}
				}
			}
		}
	}
}
MOTION
Frames: 11
Frame Time: 0.03333333
1.738832 26.810741 3.568390 0.000000 0.000000 0.000000 -20.146799 -69.972317 -21.870993 -57.439644 -10.515053 37.344373 60.601687 2.888946 9.841530 12.589366 13.409409 -28.659528 -0.000007 0.000001 -0.000001 0.000000 0.000000 0.000000 -20.146799 -69.972317 -21.870993 -21.641188 -11.369706 -31.402700 68.301079 16.180093 -7.865959 -39.262728 -9.634585 18.397955 -0.588800 -0.000016 0.000006 0.000000 0.000000 0.000000 -20.146799 -69.972317 -21.870993 5.943928 -7.241848 -4.043886 12.176867 -15.441876 0.092219 0.000000 0.000000 0.000000 0.000000 0.000000 0.000000 11.624261 -15.837276 0.142082 -6.202164 14.090471 -5.244060 7.821157 62.098591 -17.550069 0.000000 0.000000 0.000000 11.624261 -15.837276 0.142082 0.633440 -1.077298 17.113777 0.000000 0.000000 0.000000 0.622220 -52.281133 2.559589 -0.000006 -32.040308 0.000003 0.000000 0.000000 0.000000 11.624261 -15.837276 0.142082 1.399006 3.759366 -11.474301 0.000000 0.000000 0.000000 -3.418087 -16.298354 23.882397 179.999991 75.894549 179.999978 0.000000 0.000000 0.000000 
1.825962 26.444637 4.358051 0.000000 0.000000 0.000000 -18.214525 -68.831327 -21.143332 -57.005797 -11.366698 40.992548 63.346507 2.425124 9.567931 10.563764 13.670051 -27.956191 0.000009 -0.000006 -0.000000 0.000000 0.000000 0.000000 -18.214525 -68.831327 -21.143332 -20.280898 -12.175238 -32.196088 66.829057 16.025256 -7.905007 -38.847736 -10.198991 19.879134 -0.617370 -0.000014 0.000008 0.000000 0.000000 0.000000 -18.214525 -68.831327 -21.143332 5.730533 -6.993096 -3.721476 11.792644 -15.159883 0.135018 0.000000 0.000000 0.000000 0.000000 0.000000 0.000000 11.299804 -15.479609 0.202148 -6.371661 13.889960 -4.194009 8.822571 62.037222 -17.372484 0.000000 0.000000 0.000000 11.299804 -15.479609 0.202148 0.679925 -1.149571 17.434606 0.000000 0.000000 0.000000 1.611606 -43.986862 3.346490 0.000000 -28.023320 0.000014 0.000000 0.000000 0.000000 11.299804 -15.479609 0.202148 1.344843 3.504355 -11.402500 0.000000 0.000000 0.000000 -20.573599 -17.699996 16.212496 179.999950 74.893332 -179.999978 0.000000 0.000000 0.000000 
1.829420 26.093800 5.204077 0.000000 0.000000 0.000000 -14.591451 -67.318071 -18.989039 -57.806363 -12.588507 43.692426 66.513379 1.997278 9.236653 9.285874 13.914641 -27.398693 0.000005 0.000002 0.000009 0.000000 0.000000 0.000000 -14.591451 -67.318071 -18.989039 -18.466721 -13.680395 -32.720800 64.399975 15.458796 -7.921180 -38.350754 -10.863405 21.643427 -0.695684 0.000003 -0.000002 0.000000 0.000000 0.000000 -14.591451 -67.318071 -18.989039 5.422022 -6.402500 -3.215196 11.138557 -14.116481 0.253230 0.000000 0.000000 0.000000 0.000000 0.000000 0.000000 10.737722 -14.364805 0.322547 -6.565361 13.526395 -3.228702 8.727206 61.249885 -16.116550 0.000000 0.000000 0.000000 10.737722 -14.364805 0.322547 0.813408 -1.445711 17.871130 0.000000 0.000000 0.000000 5.397404 -35.375957 5.103420 0.000009 -24.491286 -0.000001 0.000000 0.000000 0.000000 10.737722 -14.364805 0.322547 1.296129 3.234250 -10.860345 0.000000 0.000000 0.000000 -39.743723 -18.448908 9.384011 179.999978 77.702267 -180.000005 0.000000 0.000000 0.000000 
1.864315 25.763412 6.059241 0.000000 0.000000 0.000000 -10.593328 -64.811078 -16.796096 -60.078405 -14.213012 44.774660 68.610329 1.994336 9.068880 9.623346 12.756090 -25.890679 0.000001 -0.000010 0.000002 0.000000 0.000000 0.000000 -10.593328 -64.811078 -16.796096 -15.317246 -16.239594 -32.686335 60.426649 14.314313 -7.649694 -37.410667 -11.618917 23.832637 -0.831600 0.000017 0.000002 0.000000 0.000000 0.000000 -10.593328 -64.811078 -16.796096 4.945590 -5.467340 -2.668455 10.094878 -12.296653 0.355496 0.000000 0.000000 0.000000 0.000000 0.000000 0.000000 9.806261 -12.480310 0.420180 -6.717803 12.996533 -2.444897 7.380505 59.575369 -13.295591 0.000000 0.000000 0.000000 9.806261 -12.480310 0.420180 0.885146 -1.621638 18.077108 0.000000 0.000000 0.000000 10.226536 -27.632456 6.259779 0.000007 -23.168080 -0.000009 0.000000 0.000000 0.000000 9.806261 -12.480310 0.420180 1.178072 2.764229 -10.336562 0.000000 0.000000 0.000000 -58.684227 -18.567130 -1.143230 -179.999991 82.928981 179.999937 0.000000 0.000000 0.000000 
1.880176 25.441910 6.906377 0.000000 0.000000 0.000000 -6.597278 -61.320100 -14.881713 -63.879331 -16.005070 43.801211 68.872117 2.633343 9.333080 11.681665 9.777312 -23.088864 0.000006 0.000002 0.000000 0.000000 0.000000 0.000000 -6.597278 -61.320100 -14.881713 -10.549849 -19.737445 -31.814372 54.603449 12.607675 -6.987243 -35.847244 -12.413052 26.494942 -1.161062 0.000028 -0.000002 0.000000 0.000000 0.000000 -6.597278 -61.320100 -14.881713 4.320763 -4.241103 -2.261828 8.701186 -9.856095 0.265578 0.000000 0.000000 0.000000 0.000000 0.000000 0.000000 8.520509 -9.980536 0.315993 -6.771175 12.269559 -1.790615 4.667752 56.816522 -8.490533 0.000000 0.000000 0.000000 8.520509 -9.980536 0.315993 0.784081 -1.417184 17.943885 0.000000 0.000000 0.000000 13.169717 -21.211569 5.379922 0.000011 -26.235911 0.000003 0.000000 0.000000 0.000000 8.520509 -9.980536 0.315993 0.980732 2.110794 -10.219397 0.000000 0.000000 0.000000 -76.352137 -15.445518 -12.526912 179.999978 88.092481 179.999882 0.000000 0.000000 0.000000 
1.751928 25.195728 7.811207 0.000000 0.000000 0.000000 -2.336046 -57.099196 -12.898659 -68.023152 -18.178688 42.032704 67.234825 2.291000 9.551401 16.074266 5.932075 -23.670010 -0.001901 0.000001 -0.002333 0.000000 0.000000 0.000000 -2.336046 -57.099196 -12.898659 -4.188246 -24.074767 -29.538956 46.290316 10.178116 -6.408017 -33.296988 -12.905923 29.308793 -1.498360 0.000003 0.000005 0.000000 0.000000 0.000000 -2.336046 -57.099196 -12.898659 3.658377 -2.827666 -2.190591 7.166085 -7.066757 -0.222287 0.000000 0.000000 0.000000 0.000000 0.000000 0.000000 7.062086 -7.138463 -0.215693 -6.680633 11.284419 -1.100768 0.707276 52.691928 -1.720058 0.000000 0.000000 0.000000 7.062086 -7.138463 -0.215693 0.539489 -0.874757 17.751078 0.000000 0.000000 0.000000 13.358558 -15.582487 2.734228 -0.000002 -32.757673 -0.000002 0.000000 0.000000 0.000000 7.062086 -7.138463 -0.215693 0.787090 1.519819 -10.424258 0.000000 0.000000 0.000000 -92.011008 -9.986327 -17.700893 0.000858 89.137698 -0.000512 0.000000 0.000000 0.000000 
1.520981 25.082024 8.798854 0.000000 0.000000 0.000000 1.702150 -51.979676 -11.082941 -72.670255 -20.509632 38.172647 67.219737 3.325903 9.724407 16.026733 2.935279 -25.404277 -0.220945 0.000004 -0.000007 0.000000 0.000000 0.000000 1.702150 -51.979676 -11.082941 3.914679 -28.967143 -24.902164 36.401548 6.464096 -6.809540 -30.668895 -12.517303 30.184030 -2.439868 0.000046 0.000002 0.000000 0.000000 0.000000 1.702150 -51.979676 -11.082941 3.094267 -1.340350 -2.589926 5.783925 -4.216131 -1.231309 0.000000 0.000000 0.000000 0.000000 0.000000 0.000000 5.711968 -4.246421 -1.326195 -6.428304 9.969079 -0.207968 -3.954931 46.844395 6.277791 0.000000 0.000000 0.000000 5.711968 -4.246421 -1.326195 0.269594 -0.279412 17.873219 0.000000 0.000000 0.000000 12.578721 -10.906957 0.212779 0.000003 -38.917817 0.000004 0.000000 0.000000 0.000000 5.711968 -4.246421 -1.326195 0.755798 1.334822 -10.374280 0.000000 0.000000 0.000000 -106.214749 -6.038772 -15.526145 0.000368 89.484897 0.000105 0.000000 0.000000 0.000000 
1.204392 25.082699 9.729376 0.000000 0.000000 0.000000 5.468705 -45.755635 -9.463081 -79.244251 -22.182043 30.374449 66.897796 5.733081 10.151943 17.158893 0.436034 -22.492959 0.000004 0.000003 -0.000002 0.000000 0.000000 0.000000 5.468705 -45.755635 -9.463081 13.330943 -33.170059 -17.668537 27.583523 2.511317 -8.202786 -28.201469 -11.030781 28.365028 -7.027095 0.000055 -0.000004 0.000000 0.000000 0.000000 5.468705 -45.755635 -9.463081 2.713707 0.137188 -3.469972 4.808789 -1.512953 -2.724327 0.000000 0.000000 0.000000 0.000000 0.000000 0.000000 4.729431 -1.522881 -2.990507 -6.045918 8.275604 0.941325 -8.446265 38.992495 14.191081 0.000000 0.000000 0.000000 4.729431 -1.522881 -2.990507 0.052604 0.164817 18.356903 0.000000 0.000000 0.000000 12.476103 -8.989707 -0.520098 -0.000004 -41.871215 -0.000002 0.000000 0.000000 0.000000 4.729431 -1.522881 -2.990507 1.006282 1.840413 -9.467778 0.000000 0.000000 0.000000 -114.562196 -8.217370 -18.843561 -179.999978 86.497925 179.999909 0.000000 0.000000 0.000000 
1.013927 25.192982 10.487476 0.000000 0.000000 0.000000 8.848956 -38.553471 -8.205781 -85.382829 -21.823721 21.500802 63.758901 7.708202 10.293945 19.999106 -1.587087 -18.567085 -0.000059 0.000006 0.000003 0.000000 0.000000 0.000000 8.848956 -38.553471 -8.205781 21.893391 -34.086879 -11.394703 22.684259 2.951567 -7.867749 -22.198695 -8.962157 27.952349 -11.010511 -0.075389 2.245908 0.000000 0.000000 0.000000 8.848956 -38.553471 -8.205781 2.508834 1.713638 -4.695208 4.349399 0.957738 -4.493973 0.000000 0.000000 0.000000 0.000000 0.000000 0.000000 4.241989 0.937568 -4.972885 -5.626090 6.213826 2.246207 -11.983628 29.173551 20.702334 0.000000 0.000000 0.000000 4.241989 0.937568 -4.972885 -0.127883 0.544291 18.752517 0.000000 0.000000 0.000000 12.887666 -11.384504 0.024950 -0.000008 -42.021783 -0.000008 0.000000 0.000000 0.000000 4.241989 0.937568 -4.972885 1.446539 3.026973 -7.727328 0.000000 0.000000 0.000000 -119.819522 -6.218596 -22.720384 179.999909 87.086777 179.999896 0.000000 0.000000 0.000000 
1.092713 25.386127 10.976263 0.000000 0.000000 0.000000 11.842218 -30.742337 -7.234439 -89.674100 -19.612692 13.225652 57.208643 9.304041 9.531508 24.678780 -3.578330 -13.184174 -0.000025 -0.000002 -0.000004 0.000000 0.000000 0.000000 11.842218 -30.742337 -7.234439 26.922663 -32.441865 -6.024933 23.593541 7.320721 -6.645589 -13.036537 -5.428217 26.347736 -16.939221 -5.437143 18.158106 0.000000 0.000000 0.000000 11.842218 -30.742337 -7.234439 2.397101 3.606992 -5.975846 4.339854 3.219050 -6.241727 0.000000 0.000000 0.000000 0.000000 0.000000 0.000000 4.203960 3.155247 -6.906371 -5.301363 3.867942 3.516873 -14.230113 17.884382 25.042086 0.000000 0.000000 0.000000 4.203960 3.155247 -6.906371 -0.322208 1.069908 18.311469 0.000000 0.000000 0.000000 12.144487 -17.483679 -0.857693 -0.000010 -41.360193 -0.000015 0.000000 0.000000 0.000000 4.203960 3.155247 -6.906371 1.825164 4.422378 -5.886997 0.000000 0.000000 0.000000 -121.434398 -5.407675 -23.829352 -179.999964 85.831811 179.999909 0.000000 0.000000 0.000000 
1.422491 25.531975 11.216587 0.000000 0.000000 0.000000 14.336762 -23.295479 -7.018671 -91.676268 -16.902802 6.813327 47.839031 8.980854 7.317672 31.388278 -3.806453 -6.998835 -0.000079 0.000001 -0.000003 0.000000 0.000000 0.000000 14.336762 -23.295479 -7.018671 33.105039 -29.707652 -1.901575 30.307960 11.454126 -3.143371 -14.332165 -5.703943 25.774322 -3.777606 -0.307476 4.638711 0.000000 0.000000 0.000000 14.336762 -23.295479 -7.018671 2.300562 6.193521 -7.003980 4.605197 5.337586 -7.707525 0.000000 0.000000 0.000000 0.000000 0.000000 0.000000 4.452291 5.206545 -8.456815 -5.194815 1.390298 4.598110 -15.316306 6.016578 27.170651 0.000000 0.000000 0.000000 4.452291 5.206545 -8.456815 -0.499203 1.785991 16.406249 0.000000 0.000000 0.000000 7.580515 -24.247923 -6.534028 -0.000006 -40.926920 -0.000001 0.000000 0.000000 0.000000 4.452291 5.206545 -8.456815 2.006199 5.433358 -4.727116 0.000000 0.000000 0.000000 -118.706830 -5.491707 -21.866738 -179.999991 83.028073 179.999923 0.000000 0.000000 0.000000 
